PathFileType	4	(X/Y/Z)	C:\Users\Willi\Documents\Github\OpenSimMatlabBasic\ExampleData\Trials\dynamic03\marker_experimental.trc
DataRate	CameraRate	NumFrames	NumMarkers	Units	OrigDataRate	OrigDataStartFrame	OrigNumFrames
150.000000	150.000000	2	179	mm	150.000000	0	189
Frame#	Time	LFHD			LBHD			RFHD			RBHD			C7			T10			CLAV			STRN			RBAK			LSHO			LUPA			LELB			LFRA			LWRB			LWRA			LFIN			RSHO			RUPA			RELB			RFRA			RWRB			RWRA			RFIN			SACR			LASI			RASI			LT1			LT2			LT3			LS1			LS2			LS3			LTOE			RT1			RT2			RT3			RS1			RS2			RS3			RHEE			RTOE			SACO			SACA			SACL			SACP			LHEE			RM5D			LM5D			LKNE			RKNE			LANK			RANK			LKJC			RKJC			LAJC			RAJC			LTHI			RTHI			LTIB			RTIB			P_ForcePlate1			P_ForcePlate2			P_ForcePlate3			funktRKJC			funktLKJC			funktRHIP			funktLHIP			LHJC			RHJC			LKNEshank			RKNEshank			LKJCshank			RKJCshank			LHF			COP_FP1			VECTIP_FP1			RawCentreFP1			COP_FP2			VECTIP_FP2			RawCentreFP2			COP_FP3			VECTIP_FP3			RawCentreFP3			LPelvisAngles			RPelvisAngles			LFootProgressAngles			RFootProgressAngles			LHipAngles			RHipAngles			LKneeAngles			RKneeAngles			LAnkleAngles			RAnkleAngles			LFFootAngles			RFFootAngles			LAbsAnkleAngle			RAbsAnkleAngle			RNeckAngles			LNeckAngles			RSpineAngles			LSpineAngles			LShoulderAngles			LElbowAngles			LWristAngles			RShoulderAngles			RElbowAngles			RWristAngles			RThoraxAngles			LThoraxAngles			RHeadAngles			LHeadAngles			LHipPower			LKneePower			LAnklePower			RHipPower			RKneePower			RAnklePower			LWaistPower			RWaistPower			LNeckPower			RNeckPower			LShoulderPower			RShoulderPower			LElbowPower			RElbowPower			LWristPower			RWristPower			F_ForcePlate1			F_ForcePlate2			F_ForcePlate3			LHipForce			RHipForce			LKneeForce			RKneeForce			LAnkleForce			RAnkleForce			LNormalisedGRF			RNormalisedGRF			LGroundReactionForce			RGroundReactionForce			LGRF			RGRF			LWaistForce			RWaistForce			LNeckForce			RNeckForce			LShoulderForce			RShoulderForce			LElbowForce			RElbowForce			LWristForce			RWristForce			Force_FP1			RawForceFP1			Force_FP2			RawForceFP2			Force_FP3			RawForceFP3			LHipMoment			RHipMoment			LKneeMoment			RKneeMoment			LAnkleMoment			RAnkleMoment			LGroundReactionMoment			RGroundReactionMoment			LWaistMoment			RWaistMoment			LNeckMoment			RNeckMoment			LShoulderMoment			RShoulderMoment			LElbowMoment			RElbowMoment			LWristMoment			RWristMoment			RawMomentFP1			RawMomentFP2			RawMomentFP3			
		X1	Y1	Z1	X2	Y2	Z2	X3	Y3	Z3	X4	Y4	Z4	X5	Y5	Z5	X6	Y6	Z6	X7	Y7	Z7	X8	Y8	Z8	X9	Y9	Z9	X10	Y10	Z10	X11	Y11	Z11	X12	Y12	Z12	X13	Y13	Z13	X14	Y14	Z14	X15	Y15	Z15	X16	Y16	Z16	X17	Y17	Z17	X18	Y18	Z18	X19	Y19	Z19	X20	Y20	Z20	X21	Y21	Z21	X22	Y22	Z22	X23	Y23	Z23	X24	Y24	Z24	X25	Y25	Z25	X26	Y26	Z26	X27	Y27	Z27	X28	Y28	Z28	X29	Y29	Z29	X30	Y30	Z30	X31	Y31	Z31	X32	Y32	Z32	X33	Y33	Z33	X34	Y34	Z34	X35	Y35	Z35	X36	Y36	Z36	X37	Y37	Z37	X38	Y38	Z38	X39	Y39	Z39	X40	Y40	Z40	X41	Y41	Z41	X42	Y42	Z42	X43	Y43	Z43	X44	Y44	Z44	X45	Y45	Z45	X46	Y46	Z46	X47	Y47	Z47	X48	Y48	Z48	X49	Y49	Z49	X50	Y50	Z50	X51	Y51	Z51	X52	Y52	Z52	X53	Y53	Z53	X54	Y54	Z54	X55	Y55	Z55	X56	Y56	Z56	X57	Y57	Z57	X58	Y58	Z58	X59	Y59	Z59	X60	Y60	Z60	X61	Y61	Z61	X62	Y62	Z62	X63	Y63	Z63	X64	Y64	Z64	X65	Y65	Z65	X66	Y66	Z66	X67	Y67	Z67	X68	Y68	Z68	X69	Y69	Z69	X70	Y70	Z70	X71	Y71	Z71	X72	Y72	Z72	X73	Y73	Z73	X74	Y74	Z74	X75	Y75	Z75	X76	Y76	Z76	X77	Y77	Z77	X78	Y78	Z78	X79	Y79	Z79	X80	Y80	Z80	X81	Y81	Z81	X82	Y82	Z82	X83	Y83	Z83	X84	Y84	Z84	X85	Y85	Z85	X86	Y86	Z86	X87	Y87	Z87	X88	Y88	Z88	X89	Y89	Z89	X90	Y90	Z90	X91	Y91	Z91	X92	Y92	Z92	X93	Y93	Z93	X94	Y94	Z94	X95	Y95	Z95	X96	Y96	Z96	X97	Y97	Z97	X98	Y98	Z98	X99	Y99	Z99	X100	Y100	Z100	X101	Y101	Z101	X102	Y102	Z102	X103	Y103	Z103	X104	Y104	Z104	X105	Y105	Z105	X106	Y106	Z106	X107	Y107	Z107	X108	Y108	Z108	X109	Y109	Z109	X110	Y110	Z110	X111	Y111	Z111	X112	Y112	Z112	X113	Y113	Z113	X114	Y114	Z114	X115	Y115	Z115	X116	Y116	Z116	X117	Y117	Z117	X118	Y118	Z118	X119	Y119	Z119	X120	Y120	Z120	X121	Y121	Z121	X122	Y122	Z122	X123	Y123	Z123	X124	Y124	Z124	X125	Y125	Z125	X126	Y126	Z126	X127	Y127	Z127	X128	Y128	Z128	X129	Y129	Z129	X130	Y130	Z130	X131	Y131	Z131	X132	Y132	Z132	X133	Y133	Z133	X134	Y134	Z134	X135	Y135	Z135	X136	Y136	Z136	X137	Y137	Z137	X138	Y138	Z138	X139	Y139	Z139	X140	Y140	Z140	X141	Y141	Z141	X142	Y142	Z142	X143	Y143	Z143	X144	Y144	Z144	X145	Y145	Z145	X146	Y146	Z146	X147	Y147	Z147	X148	Y148	Z148	X149	Y149	Z149	X150	Y150	Z150	X151	Y151	Z151	X152	Y152	Z152	X153	Y153	Z153	X154	Y154	Z154	X155	Y155	Z155	X156	Y156	Z156	X157	Y157	Z157	X158	Y158	Z158	X159	Y159	Z159	X160	Y160	Z160	X161	Y161	Z161	X162	Y162	Z162	X163	Y163	Z163	X164	Y164	Z164	X165	Y165	Z165	X166	Y166	Z166	X167	Y167	Z167	X168	Y168	Z168	X169	Y169	Z169	X170	Y170	Z170	X171	Y171	Z171	X172	Y172	Z172	X173	Y173	Z173	X174	Y174	Z174	X175	Y175	Z175	X176	Y176	Z176	X177	Y177	Z177	X178	Y178	Z178	X179	Y179	Z179	

1	0	-656.4765014648438	1247.565185546875	-393.0187683105468	-777.237060546875	1281.4072265625	-431.4862976074218	-663.497802734375	1255.196411132812	-279.2417297363281	-792.556396484375	1304.36279296875	-266.1915893554687	-874.4266967773438	1148.051879882812	-341.4372558593749	-907.739501953125	995.8883056640625	-333.4683837890624	-765.8785400390625	1098.200927734375	-348.4101257324218	-739.4599609375	1045.44580078125	-348.0079345703124	-906.1895141601562	1073.9482421875	-255.6738739013671	-845.1444702148438	1114.830688476562	-478.3740539550781	-920.04638671875	939.4705200195312	-524.6416015624999	-934.0839233398438	878.8800048828125	-544.4324951171875	-948.6561279296875	808.6343383789062	-565.2242431640625	-950.9105834960938	680.6135864257812	-585.4069213867188	-882.2135620117188	679.338134765625	-605.1780395507812	-905.536865234375	628.174560546875	-635.7313232421875	-835.2890014648438	1126.05517578125	-210.8864593505859	-868.3853149414062	1032.075073242188	-157.1803894042968	-900.8861083984375	889.62841796875	-106.3563766479492	-877.4274291992188	741.684814453125	-74.55355834960933	-865.5278930664062	699.46630859375	-64.03915405273433	-796.1201171875	717.7778930664062	-74.43768310546871	-786.7047729492188	658.0892333984375	-40.95409011840816	-899.2743530273438	793.4918212890625	-322.1344909667968	-765.746337890625	759.2066040039062	-432.9101867675781	-763.2859497070312	765.1961669921875	-206.7107696533203	-796.8370361328125	560.64990234375	-464.4139099121093	-849.78662109375	451.0309448242188	-441.4452819824219	-784.6685180664062	460.2955322265625	-447.9844665527344	-850.6834716796875	231.2897186279297	-443.9927368164062	-948.3845825195312	159.084228515625	-421.7116088867188	-804.4747924804688	146.0634307861328	-428.7585144042969	-763.9605712890625	49.20344543457033	-391.51513671875	-711.2798461914062	571.6218872070312	-177.9375610351562	-703.9323120117188	456.0094299316406	-194.118423461914	-660.650634765625	483.6008911132812	-193.5448455810547	-762.7062377929688	296.0502014160156	-197.9741821289062	-880.8529052734375	268.3876647949219	-223.7439880371093	-754.79248046875	199.6397552490234	-213.9859008789062	-895.074951171875	165.1218566894532	-289.7851867675781	-777.1771850585938	72.63795471191408	-251.5551300048828	-863.83837890625	785.3269653320312	-319.3424987792968	-858.8722534179688	784.1707153320312	-319.3659057617187	-863.893798828125	785.1920166015625	-324.4393920898437	-852.2867431640625	834.9703369140625	-320.7825622558593	-913.7734375	52.26150131225588	-359.2279663085938	-805.0496215820312	68.1987991333008	-224.5830230712891	-779.0734252929688	25.74855613708499	-425.3939208984375	-808.3631591796875	395.6317749023438	-432.5853576660156	-646.0916748046875	427.9213256835938	-204.6170501708984	-879.133056640625	55.24601364135744	-402.82177734375	-860.4901733398438	153.0944061279297	-241.4255676269531	-805.9087524414062	392.580322265625	-380.4870910644531	-651.2816772460938	421.1118774414062	-256.6854858398438	-862.6821899414062	64.60087585449222	-368.278076171875	-838.8353881835938	150.4063262939453	-274.3215637207031	-811.9207153320312	549.1798706054688	-466.4295959472656	-718.9946899414062	570.7378540039062	-166.4789733886718	-872.7015380859375	216.847900390625	-459.5156555175781	-793.8190307617188	296.3323059082031	-186.7789306640625	-256.7200012207031	0.07899999618532701	-396.4200134277344	254.2699890136719	-0.2560999989509441	-231.3000030517578	950.1600341796875	1.404999971389795	-394.6300048828125	0	0	0	0	0	0	0	0	0	0	0	0	-809.33349609375	698.8633422851562	-368.7882080078124	-808.8056640625	701.0199584960938	-266.8321838378906	-804.0481567382812	400.4555358886719	-429.2131652832031	-645.894775390625	418.7662353515625	-206.6984252929687	-805.392333984375	398.6479797363281	-377.0165100097656	-645.923583984375	416.7229309082031	-259.4257507324219	0.1585116982460022	1.418595671653748	0.02822007983922967	-256.7200012207031	0.07899999618532701	-396.4200134277344	-256.7201232910156	-0.2513438165187593	-396.4246215820312	-256.7200012207031	0.07899999618532701	-396.4200134277344	254.2699890136719	-0.2560999989509441	-231.3000030517578	254.3151702880859	-0.5023738741874553	-231.3120574951172	254.2699890136719	-0.2560999989509441	-231.3000030517578	950.1600341796875	1.404999971389795	-394.6300048828125	950.1600341796875	1.404999971389795	-394.6300048828125	254.2699890136719	-0.2560999989509441	-231.3000030517578	13.09945106506348	-0.2630385160446168	1.618478298187256	13.09945106506348	0.2630385160446168	-1.618478298187256	3.373189687728882	-11.28435039520264	0.5802651047706597	43.56418609619141	-11.33104801177979	5.127037525177001	13.77672672271729	-2.014407634735108	3.696788549423218	42.4434700012207	7.286947727203369	0.7928345203399663	10.66626834869385	-19.67046928405762	-3.764055728912355	63.67257308959961	-32.23677062988281	-11.55901908874512	6.869877338409424	11.4861478805542	1.147562861442567	-8.470273971557617	17.97748565673828	-2.290681838989257	-7.951386796473776e-16	4.969616747796128e-17	-2.958474961797168e-15	9.541664367526768e-15	-2.782985405235602e-15	3.578123820185183e-15	12.51031398773193	0	0	-3.655507802963257	0	0	16.62763595581055	8.375431060791016	3.522175312042237	16.62763595581055	-8.375431060791016	-3.522175312042237	-11.08674430847168	-3.569201469421387	1.518306851387024	-11.08674430847168	3.569201469421387	-1.518306851387024	-23.71851921081543	-15.47768974304199	-15.14680194854737	35.03367614746094	-1.835180011428017e-12	1.98784677852767e-15	7.33655309677124	94.84398651123047	-5.080695152282709	-21.15903091430664	-4.112340927124023	-16.73919868469238	45.50354766845703	-2.206907399882052e-12	-3.975693398238239e-16	13.34682655334473	91.664794921875	0.3496567308902797	1.926915884017944	4.366508007049561	-2.337948083877563	1.926915884017944	-4.366508007049561	2.337948083877563	-18.81144714355469	-5.531740188598633	-4.456275939941406	-18.81144714355469	5.531740188598633	4.456275939941406	0	-0.05079532414674759	-3.110316556398335e-18	0	-0.0006417411495931447	-3.929531223651937e-20	0	0.00889147724956274	5.444459576684261e-19	0	0.01600995659828186	9.803271051286964e-19	0	-0.02229007333517075	-1.364873348133831e-18	0	0.00978383794426918	5.990872910912836e-19	nan	nan	nan	nan	nan	nan	nan	nan	nan	nan	nan	nan	0	-0.002257740357890725	-1.382467251298338e-19	0	0.002815460553392768	1.723972377419044e-19	0	0.003982174210250378	2.438378450115132e-19	0	-0.01184811256825924	-7.254876566328102e-19	0	-0.0001353972620563582	-8.29069117953172e-21	0	0.0004755472473334521	2.911887071451234e-20	-256.7201232910156	-0.2513438165187593	-396.4246215820312	254.3151702880859	-0.5023738145828105	-231.3120422363281	950.1600341796875	1.404999971389795	-394.6300048828125	0.1585116982460022	1.418595671653748	0.02822007983922967	0.09582816809415817	1.001668214797974	0.1219454035162926	-0.06434393674135208	0.5771867036819458	0.02990420348942283	-0.1515734791755676	0.3097844123840332	0.142497405409813	-0.1426639556884766	-0.008048700168728828	0.003319805953651666	-0.1651776283979416	-0.01745541393756866	0.008258061483502386	0	0	0	0	0	0	0	0	0	0	0	0	0	0	0	0	0	0	nan	nan	nan	nan	nan	nan	nan	nan	nan	nan	nan	nan	0.1253319084644318	0.3539766669273376	0.03468062728643419	0.07720246911048889	0.3350106179714203	-0.1292203664779663	-0.06942121684551239	0.1648856401443481	0.007846100255846988	-0.08130133897066116	0.131753072142601	-0.05221839249134063	0.01111632212996483	0.04292519763112068	0.03363221883773804	0.0188680998980999	0.0334232859313488	-0.02731545269489288	-256.7201232910156	-0.2513438165187593	-396.4246215820312	-0.0001322387397522107	-0.3303438127040863	-0.004620724823325892	254.3151702880859	-0.5023738145828105	-231.3120422363281	0.04518882185220718	-0.2462738305330276	-0.01204590406268837	950.1600341796875	1.404999971389795	-394.6300048828125	0.04518882185220718	-0.2462738305330276	-0.01204590406268837	-28.35841369628906	1.017864942550658	16.32934379577637	-11.99586772918701	-3.903074026107787	-21.03938484191895	-8.876376152038574	0.03262445330619788	3.861664295196533	1.995352506637573	1.399603962898255	-14.80136871337891	-7.073920726776123	-0.1317210793495178	-0.5690780878067017	-8.138006210327148	0.0676660090684891	-0.3846674561500549	nan	nan	nan	nan	nan	nan	nan	nan	nan	nan	nan	nan	nan	nan	nan	nan	nan	nan	1.953922033309937	-1.192199945449829	-2.610572099685669	0.8329355120658875	-6.059863090515135	-22.78188896179199	-14.44062328338623	0.1213505789637567	-2.249884366989136	-10.57536029815674	-0.3123014271259303	-8.188745498657227	0.6073194742202759	2.176206480477562e-15	-1.974731922149658	1.356853723526001	1.791219074474315e-16	-1.326929569244385	7.805319786071777	0.6023484468460092	-15.10709571838379	11.00276756286621	-15.2636251449585	-13.61529159545899	11.00276756286621	-15.2636251449585	-13.61529159545899	
2	0.006666666666666667	-648.5518188476562	1247.119506835938	-392.4018554687499	-769.2813720703125	1280.9072265625	-431.0386047363281	-655.7476806640625	1254.707275390625	-278.6365661621093	-784.8568725585938	1303.783935546875	-265.7608032226562	-866.8167114257812	1147.771484375	-341.3016357421874	-900.4841918945312	995.6812133789062	-333.4370422363281	-758.3832397460938	1097.750732421875	-348.2369689941406	-732.0274658203125	1044.887329101562	-347.9822692871093	-898.7809448242188	1073.61474609375	-255.6800994873046	-837.30908203125	1114.765380859375	-478.3159179687499	-911.3275146484375	939.221435546875	-526.0029296874999	-924.9774169921875	878.6461181640625	-546.1498413085938	-938.8698120117188	808.39990234375	-567.4844360351562	-940.0347900390625	680.5208129882812	-588.561279296875	-871.0505981445312	679.8455200195312	-607.6338500976562	-893.7318115234375	628.5955200195312	-638.6704711914062	-827.803466796875	1125.442016601562	-210.7305145263671	-861.2748413085938	1031.440185546875	-157.1992187499999	-894.3518676757812	889.2260131835938	-106.6183853149413	-872.9078369140625	741.00390625	-74.95501708984371	-861.6213989257812	698.6317749023438	-64.47292327880855	-791.897705078125	716.1777954101562	-73.73188781738277	-783.818603515625	656.4473266601562	-39.98268890380855	-892.2237548828125	793.0924072265625	-321.4727783203124	-759.3206787109375	758.712890625	-433.0893249511718	-755.5523071289062	764.99072265625	-206.8494720458984	-791.8230590820312	560.3137817382812	-464.0166625976562	-845.6848754882812	451.1229248046875	-441.17578125	-780.4841918945312	459.8524169921875	-447.6846923828125	-848.8956909179688	231.2557830810547	-443.6421813964844	-947.2611694335938	159.9454803466797	-421.1421203613281	-803.48876953125	145.5838012695313	-428.510009765625	-763.7625122070312	49.18589782714846	-391.4179077148438	-702.5760498046875	572.1729125976562	-178.0254211425781	-694.279541015625	456.630615234375	-194.3772277832031	-651.23876953125	484.5797119140625	-193.8602752685547	-749.0923461914062	293.76513671875	-198.2988739013672	-865.8820190429688	261.3750305175781	-225.1510620117187	-737.2910766601562	197.5641021728516	-213.3260040283203	-875.4376831054688	156.7356109619141	-290.3504028320312	-753.7549438476562	70.17527770996095	-249.6955413818359	-856.7632446289062	784.9405517578125	-318.9556274414062	-851.796875	783.7861328125	-319.0063171386718	-856.84814453125	784.7991333007812	-324.0519714355468	-845.2391357421875	834.58642578125	-320.5252075195312	-913.5136108398438	52.55879974365237	-358.7545776367188	-781.6842041015625	64.74072265625001	-223.1859588623047	-779.0302734375	25.78263092041018	-425.3419494628906	-804.7216796875	395.3648986816406	-432.3561401367188	-636.23681640625	429.0617980957031	-205.0337677001953	-878.9667358398438	55.49431228637697	-402.4177856445312	-840.8673095703125	146.811264038086	-241.5192108154297	-802.3096923828125	392.2416076660156	-380.2601318359375	-641.4813842773438	422.2764282226562	-257.099853515625	-862.3519287109375	64.68672180175784	-367.908935546875	-818.7481689453125	144.6605529785157	-274.1446838378906	-806.654541015625	548.8277587890625	-466.1938476562499	-710.2889404296875	571.1709594726562	-166.6443481445312	-871.0466918945312	217.0960998535157	-459.1782836914062	-780.1002197265625	292.9573059082031	-187.522232055664	-256.7200012207031	0.07899999618532701	-396.4200134277344	254.2699890136719	-0.2560999989509441	-231.3000030517578	950.1600341796875	1.404999971389795	-394.6300048828125	0	0	0	0	0	0	0	0	0	0	0	0	-802.5122680664062	698.43505859375	-368.6070556640624	-801.3951416015625	700.7205810546875	-266.6585693359374	-800.587158203125	399.9595031738281	-428.9553527832031	-636.9343872070312	420.7601928710938	-206.8489227294922	-801.83740234375	398.1618957519531	-376.7560119628906	-636.277587890625	418.253173828125	-259.5521545410156	0.1453647017478943	1.425343632698059	0.01718303933739671	-256.7200012207031	0.07899999618532701	-396.4200134277344	-256.7201232910156	-0.2513438165187593	-396.4246215820312	-256.7200012207031	0.07899999618532701	-396.4200134277344	254.2699890136719	-0.2560999989509441	-231.3000030517578	254.3151702880859	-0.5023738741874553	-231.3120574951172	254.2699890136719	-0.2560999989509441	-231.3000030517578	950.1600341796875	1.404999971389795	-394.6300048828125	950.1600341796875	1.404999971389795	-394.6300048828125	254.2699890136719	-0.2560999989509441	-231.3000030517578	13.068603515625	-0.5698435902595521	1.763935685157776	13.068603515625	0.5698435902595521	-1.763935685157776	3.443544864654541	-11.43731021881104	0.4709739387035363	40.83727645874023	-12.29611206054688	5.006744384765624	13.16493988037109	-1.687448024749756	3.767823934555054	42.91121673583984	7.025838851928711	0.8014868497848515	10.63021659851074	-19.80017280578613	-3.783800125122072	61.98102951049805	-33.42795562744141	-11.40402603149414	7.372143268585205	11.44566822052002	1.227166414260865	-7.82051944732666	17.91197204589844	-2.104212760925292	3.975693398236888e-16	-1.987846699118445e-16	1.953680645809096e-15	6.361109437179021e-15	-2.782985405235601e-15	-1.704087084297789e-31	12.99724769592285	0	0	-3.010906934738159	0	0	16.47602272033691	8.470507621765137	3.557711362838746	16.47602272033691	-8.470507621765137	-3.557711362838746	-10.95493698120117	-3.278325080871582	1.293022394180298	-10.95493698120117	3.278325080871582	-1.293022394180298	-23.20595359802246	-15.19705677032471	-15.48928260803223	35.14916229248047	2.89748541999757e-12	7.95138679647555e-16	7.35342264175415	94.97063446044922	-4.93268728256225	-21.31314659118652	-4.213215827941894	-16.73628997802734	45.06454086303711	1.827427532213877e-12	-3.578123820185071e-15	13.05120658874512	91.22899627685547	-0.1245240196585599	2.043156147003174	4.361140727996826	-2.267160177230835	2.043156147003174	-4.361140727996826	2.267160177230835	-18.78147888183594	-5.606250762939453	-4.408101558685303	-18.78147888183594	5.606250762939453	4.408101558685303	0	-0.04026603326201439	-2.465583437434339e-18	0	-0.0004627386806532741	-2.833457220518506e-20	0	0.009094568900763988	5.568817346972841e-19	0	0.01065004430711269	6.521271335741526e-19	0	-0.0480060875415802	-2.939525072369191e-18	0	0.009270340204238892	5.676446229064089e-19	nan	nan	nan	nan	nan	nan	nan	nan	nan	nan	nan	nan	0	-0.004297071136534214	-2.631197206532552e-19	0	0.001908881007693708	1.168852508012637e-19	0	0.00512900622561574	3.140610528503581e-19	0	-0.01279765367507935	-7.836302804891141e-19	0	-0.0001254914968740195	-7.684137998348903e-21	0	0.0002830424346029758	1.733135057797042e-20	-256.7201232910156	-0.2513438165187593	-396.4246215820312	254.3151702880859	-0.5023738145828105	-231.3120422363281	950.1600341796875	1.404999971389795	-394.6300048828125	0.1453647017478943	1.425343632698059	0.01718304120004186	0.104883998632431	1.044497489929199	0.1163486540317536	-0.06952427327632904	0.5768882036209106	0.02251700311899189	-0.172728031873703	0.3478878736495972	0.1514162570238114	-0.1426935791969299	-0.008565622381865978	0.002077661221846938	-0.180258497595787	-0.02655815146863461	0.004595053382217882	0	0	0	0	0	0	0	0	0	0	0	0	0	0	0	0	0	0	nan	nan	nan	nan	nan	nan	nan	nan	nan	nan	nan	nan	0.1297150403261185	0.3628361821174622	0.03176074475049975	0.07821715623140335	0.3415659070014954	-0.1337254643440246	-0.06952743232250214	0.1707242876291275	0.006944860331714164	-0.08347675949335098	0.135132223367691	-0.05293017253279685	0.01184632629156113	0.04488405212759972	0.03392169252038002	0.0177729781717062	0.03405715897679329	-0.02892839722335338	-256.7201232910156	-0.2513438165187593	-396.4246215820312	-0.0001322387397522107	-0.3303438127040863	-0.004620724823325892	254.3151702880859	-0.5023738145828105	-231.3120422363281	0.04518882185220718	-0.2462738305330276	-0.01204590406268837	950.1600341796875	1.404999971389795	-394.6300048828125	0.04518882185220718	-0.2462738305330276	-0.01204590406268837	-23.4997673034668	0.7659237384796135	12.66343307495117	-9.195899963378906	-2.775759458541869	-18.78071594238281	-9.891759872436523	0.08334578573703749	2.616053819656372	-3.756536722183228	0.475092738866807	-15.04785442352295	-7.045381546020508	-0.06733471155166622	-0.5876634120941162	-8.680554389953613	-0.1671696454286575	-0.2139396965503693	nan	nan	nan	nan	nan	nan	nan	nan	nan	nan	nan	nan	nan	nan	nan	nan	nan	nan	3.147454500198364	-1.292549133300781	-2.140218019485474	0.3623293936252594	-5.725478172302244	-23.308349609375	-14.48823356628418	0.1077504605054857	-2.398185253143311	-11.2277250289917	-0.2636307775974269	-7.824906349182129	0.6955204010009766	1.981502809831524e-15	-1.991687536239624	1.212707042694092	-2.41400389309339e-16	-1.45207417011261	7.805319786071777	0.6023484468460092	-15.10709571838379	11.00276756286621	-15.2636251449585	-13.61529159545899	11.00276756286621	-15.2636251449585	-13.61529159545899	
